<svg width="71" height="50" viewBox="0 0 71 50" fill="none" xmlns="http://www.w3.org/2000/svg">
<path d="M15.1973 32.5489C13.9833 34.5618 12.3166 34.6009 10.3824 34.1514C7.85157 33.5456 5.25896 33.1157 2.70751 32.5489C0.629313 32.0994 -0.317194 30.9073 0.0943309 28.9335C1.47294 22.5626 2.91327 16.2112 4.41534 9.85985C4.84744 8.06192 6.28777 7.16296 8.18079 7.49518C11.1438 8.00329 14.1685 8.49186 17.008 9.37128C18.2426 9.76213 19.1685 11.1106 20.0533 12.2831C28.901 12.3613 37.9957 9.68396 47.0493 13.7684C47.2962 11.3646 48.7983 10.5243 50.5061 9.80122C52.7077 8.86317 54.8065 7.7297 57.0082 6.7721C59.0864 5.8536 60.6502 6.38125 61.6584 8.31598C64.6008 13.9052 67.5432 19.4749 70.4444 25.0836C71.5556 27.1942 71 28.699 68.7778 29.7739C66.4527 30.8878 64.0658 31.9431 61.7613 33.1157C59.9094 34.0537 58.3045 33.956 56.9259 32.3535C55.7324 32.7834 55.3209 33.3502 55.6296 34.64C56.2057 37.161 54.539 38.6072 50.9793 38.9394C49.8682 41.9099 49.3538 42.2812 46.1645 42.4571C44.7447 45.3494 42.8929 45.8966 39.8682 44.4309C39.2509 44.1377 38.325 43.9619 37.7077 44.1573C34.6624 45.154 32.0904 44.7436 29.4978 42.7697C24.9093 39.2716 20.0944 36.0471 15.1973 32.5685V32.5489ZM25.2179 14.511C23.901 14.5501 22.8311 14.6673 21.8022 14.6087C19.9915 14.4915 19.1891 15.1755 18.8598 16.9148C18.1397 20.8038 17.2343 24.6537 16.2672 28.5036C15.938 29.8129 16.2261 30.6533 17.3578 31.435C22.3372 34.894 27.2755 38.3726 32.1932 41.8903C33.613 42.9066 34.971 42.6525 36.5966 42.0858C36.1027 41.6363 35.7529 41.3627 35.4443 41.0304C34.7035 40.2487 32.9751 39.6234 34.1068 38.3336C35.3208 36.9656 36.2056 38.6072 37.0492 39.213C38.4484 40.2097 39.6213 41.4995 41.0616 42.3789C41.6377 42.7307 42.7077 42.3007 43.5513 42.2421C43.2632 41.6754 43.1398 40.9718 42.6871 40.581C40.897 39.0566 38.9628 37.6691 37.1315 36.1839C36.3908 35.578 35.0328 34.9722 36.1233 33.7801C37.0904 32.7248 37.934 33.7019 38.6748 34.2882C40.7941 35.9493 42.8929 37.63 45.0122 39.2911C45.9176 40.0142 46.9875 40.8155 47.9546 39.7015C48.8394 38.7049 47.9341 37.845 47.0904 37.1219C44.8065 35.1676 42.4608 33.2329 40.2797 31.2005C39.8476 30.8096 39.9505 29.9107 39.8064 29.2462C40.506 29.3244 41.4114 29.1485 41.8846 29.5003C43.9628 31.1028 45.8764 32.8811 47.8929 34.5618C48.6954 35.2263 49.5184 36.008 50.4855 36.2816C51.288 36.5161 52.3168 36.1252 53.2427 35.9884C53.037 35.1872 53.0987 34.1514 52.5843 33.6433C48.86 29.9888 45.1357 26.3343 41.1645 22.9339C38.5513 20.6865 36.3702 20.8428 33.5307 22.8167C32.8311 23.3052 32.1727 23.8524 31.4731 24.341C29.2303 25.8849 27.2344 26.1585 25.5265 25.0054C23.5718 23.6961 23.2837 21.7809 23.757 19.7094C24.1479 18.0678 24.6829 16.4457 25.2385 14.511H25.2179ZM15.3619 22.1718C16.0203 19.2403 16.6376 16.3089 17.3784 13.3971C17.7487 11.9314 17.2549 11.2669 15.7323 11.0129C13.366 10.6025 10.9997 10.0944 8.65404 9.56671C7.25486 9.25403 6.51411 9.60579 6.22605 11.0129C4.92974 16.8757 3.61287 22.7189 2.25483 28.5622C1.92561 29.9497 2.41944 30.536 3.85978 30.7901C6.30835 31.2005 8.73635 31.7086 11.1232 32.2753C12.6253 32.6466 13.1808 32.0994 13.4483 30.7705C14.045 27.8978 14.724 25.0445 15.3825 22.1913L15.3619 22.1718ZM58.9218 8.39414C58.4897 8.5114 58.2222 8.55049 57.9958 8.6482C55.3415 9.87939 52.6872 11.0715 50.0946 12.4004C49.7859 12.5567 49.6213 13.5534 49.8271 13.9443C52.6872 19.4944 55.6296 24.9859 58.5102 30.5165C58.9835 31.435 59.5802 31.7281 60.5884 31.2396C62.9135 30.1061 65.2387 28.9921 67.6049 27.9173C68.716 27.4092 68.8601 26.7447 68.3457 25.7676C65.4856 20.3738 62.646 14.9605 59.786 9.54716C59.5596 9.11722 59.1892 8.76546 58.9012 8.3746L58.9218 8.39414ZM55.7119 30.4774C54.0246 27.1942 52.111 24.2042 50.9588 20.9796C49.4155 16.6607 46.4731 14.7846 41.8641 14.1788C37.79 13.6316 33.7982 13.0062 29.7447 13.8856C29.2508 13.9834 28.4484 14.1202 28.3455 14.4133C27.4401 16.7584 26.3702 19.1035 25.9586 21.5464C25.6912 23.188 27.4196 23.9501 29.0451 23.1098C30.0327 22.6017 30.9175 21.8786 31.8023 21.2142C35.9998 18.1264 38.8599 18.1264 42.934 21.3119C43.6542 21.8786 44.3332 22.504 44.9917 23.1293C47.9752 25.9435 50.9588 28.7576 54.0246 31.65C54.539 31.2982 55.0534 30.9269 55.7119 30.4774Z" fill="#2F4E8B"/>
</svg>
